<?xml version="1.0" standalone="no"?>
<!DOCTYPE svg PUBLIC "-//W3C//DTD SVG 1.1//EN" "http://www.w3.org/Graphics/SVG/1.1/DTD/svg11.dtd" >
<svg xmlns="http://www.w3.org/2000/svg">
<metadata>Generated by IcoMoon</metadata>
<defs>
<font id="bits-icon" horiz-adv-x="1024">
<font-face units-per-em="1024" ascent="960" descent="-64" />
<missing-glyph horiz-adv-x="1024" />
<glyph unicode="&#x20;" d="" horiz-adv-x="512" />
<glyph unicode="&#xe600;" d="M908.32-75.895h-792.64c-39.776 0-72.096 31.68-72.096 70.688v776.8c0 39.008 32.32 70.56 72.096 70.56h72.064v-35.296c0-58.496 48.384-105.888 108.064-105.888 59.712 0 108.096 47.36 108.096 105.888v35.328h216.224v-35.328c0-58.496 48.384-105.888 108-105.888 59.744 0 108.128 47.36 108.128 105.888v35.328h72.064c39.808 0 72.032-31.552 72.032-70.56v-776.8c0-39.040-32.224-70.72-72.032-70.72v0zM908.32 595.049h-792.64v-600.256h792.64v600.256zM295.808 418.473h-108.064v105.952h108.064v-105.952zM295.808 241.929h-108.064v105.952h108.064v-105.952zM295.808 65.353h-108.064v105.952h108.064v-105.952zM475.936 418.473h-108.032v105.952h108.032v-105.952zM475.936 241.929h-108.032v105.952h108.032v-105.952zM475.936 65.353h-108.032v105.952h108.032v-105.952zM656.096 418.473h-108.096v105.952h108.096v-105.952zM656.096 241.929h-108.096v105.952h108.096v-105.952zM656.096 65.353h-108.096v105.952h108.096v-105.952zM836.256 418.473h-108.128v105.952h108.128v-105.952zM836.256 241.929h-108.128v105.952h108.128v-105.952zM836.256 65.353h-108.128v105.952h108.128v-105.952zM727.072 736.233c-39.2 0-70.976 31.136-70.976 69.504v72.8c0 38.432 31.776 69.536 70.976 69.536s70.912-31.104 70.912-69.536v-72.8c0-38.368-31.744-69.504-70.912-69.504v0zM294.688 736.233c-39.136 0-70.944 31.136-70.944 69.504v72.8c0 38.432 31.808 69.536 70.944 69.536 39.2 0 70.944-31.104 70.944-69.536v-72.8c0-38.368-31.744-69.504-70.944-69.504v0z" />
<glyph unicode="&#xe601;" d="M461.504 441.609l373.824-375.616-137.088-136.384-509.568 512 509.568 511.968 137.088-136.416z" />
<glyph unicode="&#xe602;" d="M188.672 817.161l137.088 136.416 509.568-511.968-509.568-512-137.088 136.384 373.824 375.616z" />
<glyph unicode="&#xe603;" d="M0 950.857l505.628-505.515-505.628-518.485z" horiz-adv-x="506" />
<glyph unicode="&#xe604;" d="M512 494.547l-456.31 456.31-55.69-55.69 456.31-456.31-456.31-456.31 55.69-55.69 512 512z" horiz-adv-x="568" />
<glyph unicode="&#xe605;" d="M0-8.407v543.936h180.672v-543.936h-180.672zM807.36 250.409l215.68-220.672c0 0 1.504-38.88-26.88-71.872-28.256-32.992-75.2-32.384-75.2-32.384l-215.68 220.448 16 32.928-27.808 27.424v-214.688h-180.576v183.616c-26.176 3.424-51.744 11.424-75.936 23.744v-207.424h-180.32v730.752h180.384v-88.8c24.192 12.384 49.76 20.32 76 23.68v292.32h180.576v-345.568c6.112-5.056 12.64-9.504 18.304-15.36 83.488-85.376 91.488-218.176 25.056-313.504l42.496-42.112 27.904 17.472zM673.184 549.161c-71.744 73.312-188.192 73.312-259.616-0.064-71.872-73.376-72.064-192.384-0.256-265.632 71.808-73.44 188.128-73.312 259.808-0.064 71.808 73.632 71.744 192.32 0.064 265.76v0z" />
<glyph unicode="&#xe606;" d="M660.192 324.553l20.8 47.744 327.36 429.376-108.416 149.184h-738.88l-108.416-149.184 327.36-429.376 20.8-47.744c-53.952-40.32-89.12-104.512-89.12-176.992 0-121.312 98.048-220.064 218.816-220.672 120.736 0.64 218.88 99.36 218.88 220.672-0.128 72.48-35.264 136.672-89.184 176.992zM269.568 803.657h521.856l-260.928-304.192-260.928 304.192zM530.496 23.657c-67.616 0.672-122.368 55.872-122.368 123.872s54.752 123.2 122.368 123.936c67.552-0.736 122.368-55.936 122.368-123.936 0.064-67.936-54.816-123.168-122.368-123.872z" />
<glyph unicode="&#xe607;" d="M272.576 164.617c-58.304 0-105.76 45.76-105.76 101.888s47.424 101.888 105.76 101.888c58.24 0 105.632-45.76 105.632-101.888s-47.456-101.888-105.632-101.888v0zM505.248 121.801c-58.24 0-105.632 45.632-105.632 101.888 0 56.128 47.36 101.824 105.632 101.824 58.304 0 105.76-45.696 105.76-101.824 0-56.256-47.584-101.888-105.76-101.888v0zM727.008 164.617c-58.24 0-105.632 45.76-105.632 101.888s47.36 101.888 105.632 101.888c58.304 0 105.696-45.76 105.696-101.888s-47.392-101.888-105.696-101.888v0zM665.184-46.199c-0.128-0.992-0.192-1.952-0.448-2.944-0.064-0.512-0.192-0.928-0.384-1.44-0.32-0.928-0.576-1.888-0.928-2.688-0.256-0.448-0.512-0.864-0.672-1.312-0.512-0.8-0.928-1.76-1.504-2.56-0.256-0.384-0.512-0.672-0.736-0.992-0.736-0.8-1.376-1.696-2.048-2.432-0.256-0.256-0.512-0.512-0.8-0.672-0.864-0.8-1.696-1.504-2.56-2.176-0.256-0.192-0.512-0.32-0.736-0.512-0.992-0.672-1.952-1.312-3.008-1.824-0.128 0-0.192-0.128-0.256-0.128v0c-9.568-4.8-21.44-3.488-26.88 8.864-9.76 22.016-19.488 44-29.248 66.112-2.624 6.112-5.44 12.32-8.128 18.496-0.192 0.384-0.32 0.672-0.448 1.056v-93.92c0-2.624 0-5.248 0-7.872h-157.056c0 2.624 0 5.248 0 7.872 0 0.128 0.064 0.192 0.064 0.32v91.68c-3.072-6.944-6.112-13.888-9.184-20.736-4.576-10.56-9.184-20.992-13.888-31.552-3.2-7.328-6.368-14.56-9.568-21.888-10.624-24.32-47.328-3.36-36.736 20.672 6.176 14.016 12.32 28 18.432 42.016 4.512 10.304 9.056 20.64 13.504 30.816 7.936 18.016 15.872 35.936 23.744 53.888 2.944 6.88 8.128 10.048 13.696 10.624v0.256h157.056v-0.192c7.008 0.384 13.824-2.752 17.632-11.328 2.368-5.376 4.8-10.816 7.2-16.192 6.016-13.824 12.064-27.488 18.176-41.248 7.264-16.384 14.496-32.8 21.696-49.184 4.128-9.184 8.192-18.496 12.32-27.744 0.672-1.632 1.248-3.264 1.568-4.736 0.064-0.576 0.064-0.992 0.064-1.504 0.192-1.12 0.32-2.24 0.32-3.328-0.064-0.576-0.192-1.024-0.256-1.568v0zM846.016-14.199c-12.576 28.576-25.184 57.12-37.824 85.632v-93.824c0-15.68 0-31.328 0-46.88 0-1.312 0-2.496 0-3.744h-63.872c0 1.248 0 2.432 0 3.744h-29.248c0-1.312 0-2.496 0-3.744h-24.256c9.888 15.488 11.424 33.952 4 50.816l-59.392 134.368c-1.76 4-4 7.68-6.56 11.072 2.88 6.496 5.696 12.992 8.576 19.552 3.008 6.88 8.128 10.016 13.696 10.624v0.128l157.056-0.128c7.072 0.448 13.952-2.752 17.632-11.328 19.808-44.8 39.552-89.568 59.36-134.304 11.328-25.568-27.808-47.744-39.168-21.984v0zM359.936 57.225c-2.112 4.736-4.192 9.44-6.24 14.176v-28.448l-25.056-56.864c-7.552-17.312-5.76-36.128 4.928-51.808 1.952-2.688 4.384-5.056 6.688-7.424h-50.432c0 1.312 0 2.496 0 3.808h-29.312c0-1.312 0-2.496 0-3.808h-63.872c0 16.928 0 33.824 0 50.752 0 0.064 0 0.192 0 0.32v91.616c-10.816-24.672-21.696-49.44-32.576-74.112-10.688-24.384-47.328-3.36-36.672 20.672 18.496 42.176 37.056 84.448 55.552 126.624 3.072 6.88 8.192 10.048 13.696 10.624v0.192l157.056-0.128c7.072 0.448 13.888-2.752 17.696-11.36 4.32-9.76 8.64-19.488 12.928-29.312l-24.384-55.52zM909.632 189.801c-7.552-10.304-15.552-20.448-24-30.176-5.312-6.176-10.88-12.256-16.512-18.176l-6.944 15.616c-3.424 7.872-8.448 14.688-14.496 20.064v1.376c1.504 1.696 3.136 3.264 4.64 4.928-1.504 0.928 7.872 11.136 24.256 30.112 16.448 19.072 75.68 137.952 82.432 219.136h-165.248c0-0.384-0.064-0.672-0.064-1.056-0.64-13.312-1.632-26.56-2.944-39.552-12.448 5.888-25.952 10.112-40.128 12.384 0.736 9.056 1.504 18.048 1.952 27.264 0 0.32 0 0.672 0.128 0.992h-231.328v-70.432c-5.376 0.64-10.624 1.376-16.128 1.376-8.576 0-16.8-0.8-24.928-2.176v71.232h-233.696c0.064-0.32 0.128-0.672 0.128-0.992 0.448-9.248 1.248-18.24 1.952-27.328-14.24-2.24-27.68-6.496-40.128-12.512-1.376 13.12-2.368 26.304-2.944 39.744 0 0.384-0.064 0.672-0.064 1.056h-162.88c6.752-81.184 36.448-156.064 82.432-219.072 8.32-21.184 25.76-29.248 24.256-30.176 2.496-2.88 5.184-5.504 7.68-8.256v-1.376c-4.32-4.672-7.808-10.048-10.496-16.128l-9.184-20.928c-7.328 7.424-14.496 15.008-21.312 22.88-8.384 9.76-16.448 19.872-24 30.176-57.824 78.752-92.064 174.816-92.064 278.432 0 103.552 34.24 199.488 92.064 278.24 7.552 10.368 15.616 20.448 24 30.24 91.424 105.632 228.576 173.216 381.888 174.144 0.64 0 1.12 0 1.696 0 0.192 0 0.32 0 0.512 0 0.256 0 0.448 0 0.672 0 154.496 0 292.928-67.744 384.864-174.048 8.384-9.824 16.384-19.872 23.936-30.24 57.888-78.816 92.128-174.752 92.128-278.304 0-103.648-34.272-199.712-92.128-278.464v0zM41.184 472.233h163.488c0.384 70.88 10.176 138.016 27.424 198.496-39.84 14.432-75.84 31.936-106.976 52-51.936-71.136-83.072-157.248-83.936-250.496v0zM149.312 752.969c27.36-17.248 59.136-32.64 94.496-45.376 26.368 75.136 64.576 137.76 110.624 180.448-80.736-26.176-151.424-73.504-205.12-135.072v0zM480.32 909.865c-84.32-11.2-156.928-94.56-198.24-214.56 59.424-17.248 126.656-27.648 198.24-29.248v243.808zM480.32 626.409c-75.36 1.696-146.432 12.992-209.696 31.68-15.424-56.576-24.512-119.328-24.8-185.888h234.496v154.208zM521.376 472.233h232.128c-0.384 66.304-9.312 128.864-24.672 185.184-62.624-18.24-132.928-29.312-207.424-31.008v-154.176h-0.032zM521.376 909.545v-243.488c70.624 1.632 137.248 11.808 196.192 28.64-40.928 119.168-112.768 202.4-196.192 214.848v0zM643.552 889.289c46.752-42.944 85.568-106.304 112.192-182.368 36.192 12.8 68.672 28.384 96.64 46.016-54.56 62.496-126.432 110.432-208.832 136.352v0zM876.576 722.665c-31.744-20.384-68.448-38.176-109.056-52.736 17.056-60.256 26.752-127.136 27.072-197.696h165.952c-0.864 93.248-31.968 179.36-83.968 250.432v0z" />
<glyph unicode="&#xe608;" d="M567.68 915.913c-154.24 0-290.752-76.512-373.376-193.056 17.12-11.072 33.76-26.24 49.888-45.824 61.696 91.488 161.376 155.68 276.672 169.504l46.816-78.688 46.88 78.688c177.248-21.248 318.176-161.056 339.488-336.992l-79.264-46.496 79.328-46.496c-14.24-117.632-82.112-218.944-178.496-279.616 6.176-13.888 9.632-28.064 10.24-42.688 0.448-10.688-0.672-20.8-2.944-30.368 143.328 76.416 241.088 226.656 241.088 399.168 0 249.696-204.672 452.864-456.32 452.864v0zM684.128 170.057c-105.184 83.872-134.56 42.688-182.304-4.672-33.312-33.056-117.696 36-190.432 108.32-72.8 72.256-142.368 155.872-109.056 188.992 47.68 47.36 89.248 76.576 4.672 180.928-84.512 104.352-140.896 24.16-187.136-21.696-53.376-52.928-2.816-250.304 193.76-445.376 196.512-195.072 395.328-245.184 448.672-192.256 46.208 45.888 127.008 101.824 21.824 185.76v0zM363.808 392.105c0 92.864 109.44 109.376 109.44 145.632 0 17.568-14.176 24.928-27.264 24.928-24.128 0-37.568-26.752-37.568-26.752l-46.048 30.56c0 0 23.424 54.176 89.312 54.176 41.44 0 86.368-23.552 86.368-76.992 0-78.368-102.016-93.504-103.744-125.888h107.616v-52.672h-175.328c-1.728 9.824-2.784 18.56-2.784 27.008v0zM567.872 463.177l97.76 153.248h75.808v-139.552h30.048v-50.944h-30.048v-60.8h-61.312v60.8h-112.256v37.248zM680.128 476.841v56.256c0 13.696 2.112 28.128 2.112 28.128h-0.672c0 0-5.312-15.424-12.384-26.016l-38.24-57.632v-0.736h49.184z" />
<glyph unicode="&#xe609;" d="M1008.864 127.497l-272.512 301.312 287.648 206.912v-470.752c0-14.432-6.176-27.168-15.136-37.472v0zM0 707.305c0 33.248 28.64 60.192 64 60.192h895.936c35.424 0 64.064-26.944 64.064-60.192l-512-301.312-512 301.312zM15.072 127.497c-8.96 10.304-15.072 23.040-15.072 37.472v470.752l287.552-206.944-272.48-301.28zM512 289.289l178.304 104.928 269.632-289.504h-895.936l269.632 289.504 178.368-104.928z" />
<glyph unicode="&#xe60a;" d="M232.992 672.297c-43.68 0-79.136 50.56-79.136 94.048 0 43.552 35.424 78.88 79.136 78.88s79.136-35.328 79.136-78.88-35.456-94.048-79.136-94.048v0zM828.064 672.297c-43.68 0-79.136 50.56-79.136 94.048 0 43.552 35.424 78.88 79.136 78.88s79.072-35.328 79.072-78.88-35.392-94.048-79.072-94.048v0zM326.432 304.489l19.072-237.12c1.696-20.576-13.76-38.56-34.432-40.256-0.928-0.064-2.016-0.064-3.008-0.064-19.328 0-35.808 14.752-37.312 34.368l-22.624 278.944c-4.576-2.048-9.696-3.264-15.136-3.264-5.376 0-10.432 1.248-15.072 3.264l-22.56-278.944c-1.568-19.616-17.952-34.368-37.376-34.368-0.992 0-2.016 0-3.072 0.064-20.64 1.696-36.064 19.68-34.368 40.256l24.864 308.672v212.8c-3.072-0.864-5.952-1.76-8.672-2.496l-22.816-204.576c-1.76-15.936-15.328-27.744-31.008-27.744-1.184 0-2.304 0.064-3.488 0.256-17.12 1.888-29.568 17.312-27.68 34.432l25.056 224.512c0.192 1.696 0.992 2.944 1.504 4.448 0.576 2.112 0.864 4.256 1.952 6.176 0.992 2.176 2.624 4 4.192 5.824 0.992 1.12 1.76 2.368 2.88 3.424 2.368 2.112 5.312 3.68 8.32 4.992 0.544 0.256 0.992 0.704 1.6 1.024 0.064 0 0.512 0.128 0.8 0.256 0.448 0.192 0.928 0.384 1.44 0.576 12.8 4.448 77.76 26.016 133.504 26.016 23.36 0 48.32-3.808 70.432-8.576l-30.88-277.12c-2.016-18.56 3.328-36.928 15.008-51.552 10.016-12.544 23.776-20.736 38.88-24.224v0zM981.632 354.281c-1.12-0.064-2.24-0.192-3.488-0.192-15.68 0-29.184 11.744-31.008 27.744l-22.816 204.512c-2.688 0.8-5.568 1.632-8.672 2.56v-212.8l24.928-308.672c1.568-20.576-13.824-38.56-34.432-40.32-0.992-0.064-2.048-0.064-3.072-0.064-19.36 0-35.808 14.88-37.376 34.368l-22.496 278.944c-4.64-2.016-9.76-3.2-15.136-3.2-5.44 0-10.496 1.184-15.136 3.2l-22.56-278.944c-1.504-19.488-18.016-34.368-37.376-34.368-0.992 0-2.016 0-3.072 0.064-20.64 1.76-36 19.744-34.368 40.32l19.136 237.056c15.264 3.552 28.8 11.808 38.752 24.192 11.744 14.56 17.12 32.928 15.072 51.552l-30.944 277.056c22.176 4.736 47.008 8.64 70.496 8.64 60.736 0 132.672-25.76 135.744-26.816 1.44-0.448 2.432-1.568 3.744-2.24 2.016-1.12 4.128-2.016 5.888-3.552 1.504-1.312 2.624-2.944 3.808-4.576 1.312-1.504 2.624-2.944 3.552-4.736 1.056-2.016 1.504-4.256 2.048-6.432 0.384-1.504 1.184-2.752 1.376-4.32l24.992-224.512c1.984-17.152-10.4-32.512-27.584-34.464v0zM530.496 731.721c-54.688 0-99.008 63.2-99.008 117.696 0 54.56 44.32 98.656 99.008 98.656 54.624 0 99.008-44.096 99.008-98.656 0-54.496-44.384-117.696-99.008-117.696v0zM722.816 333.737c-1.568-0.128-3.008-0.256-4.448-0.256-19.68 0-36.64 14.688-38.88 34.752l-28.512 255.872c-3.328 0.992-6.944 2.048-10.816 3.2v-266.368l31.136-386.24c2.048-25.696-17.12-48.384-43.072-50.368-1.248-0.128-2.56-0.192-3.808-0.192-24.256 0-44.8 18.56-46.816 43.072l-28.16 349.088c-5.76-2.56-12.192-4.064-18.88-4.064-6.752 0-13.12 1.504-18.944 4.064l-28.192-349.12c-2.016-24.512-22.56-43.072-46.752-43.072-1.312 0-2.56 0.064-3.872 0.192-25.824 2.016-45.12 24.672-43.008 50.368l31.136 386.24v266.368c-3.872-1.12-7.552-2.176-10.88-3.2l-28.512-255.872c-2.24-20.064-19.264-34.752-38.88-34.752-1.44 0-2.88 0.064-4.448 0.256-21.44 2.368-36.864 21.632-34.56 43.136l31.36 280.928c0.192 2.048 1.184 3.68 1.76 5.632 0.736 2.688 1.248 5.248 2.432 7.744 1.376 2.688 3.328 4.928 5.312 7.2 1.184 1.44 2.176 3.008 3.552 4.32 3.136 2.688 6.624 4.576 10.432 6.24 0.672 0.384 1.248 0.928 2.016 1.248 0.192 0.064 0.64 0.256 0.992 0.384 0.64 0.256 1.248 0.512 1.952 0.672 14.816 5.12 85.952 28.512 152 31.872l9.76-19.616h0.32l-26.336-204.672 31.328-54.56 31.328 54.56-26.432 204.704h0.256l10.016 19.872c72.448-3.68 151.2-31.872 154.752-33.12 1.76-0.672 3.072-2.016 4.672-2.88 2.624-1.376 5.184-2.56 7.36-4.512 1.952-1.632 3.264-3.68 4.736-5.696 1.632-1.888 3.264-3.68 4.448-5.952 1.312-2.56 1.888-5.312 2.624-8.064 0.448-1.824 1.44-3.424 1.696-5.376l31.328-280.928c2.432-21.472-13.056-40.736-34.496-43.104v0z" />
<glyph unicode="&#xe60b;" d="M582.24 584.905l-39.072-4.512c-5.504-20.608-13.76-40.224-24.256-58.688l25.344-32.512c8.768-11.264 7.904-27.2-2.080-37.312l-46.336-46.88c-9.984-10.016-25.856-11.008-36.928-2.112l-32.608 26.112c-18.56-10.56-38.304-18.688-59.008-24.128l-4.8-42.304c-1.696-14.176-13.568-24.864-27.584-24.864h-65.6c-14.016 0-25.888 10.688-27.552 24.864l-5.056 43.872c-19.2 5.536-37.696 13.44-55.008 23.552l-33.76-27.008c-11.136-8.928-26.912-8-36.864 2.080l-46.4 46.912c-9.888 10.144-10.848 26.112-2.048 37.376l26.88 34.272c-9.472 16.832-16.896 34.912-22.24 53.536l-42.688 4.992c-14.080 1.664-24.576 13.696-24.576 27.904v66.304c0 14.24 10.496 26.208 24.576 27.872l40.448 4.672c5.024 20.416 12.736 40.064 22.848 58.528l-25.248 32.32c-8.768 11.232-7.936 27.2 2.048 37.312l46.368 46.848c9.984 10.016 25.76 11.040 36.864 2.144l30.208-24.224c19.392 11.648 40.128 20.512 61.888 26.464l4.416 38.048c1.632 14.208 13.504 24.896 27.552 24.896h65.6c14.016 0 25.952-10.688 27.552-24.864l4.416-38.048c21.216-5.792 41.408-14.304 60.288-25.568l29.088 23.328c11.104 8.864 26.976 7.968 36.928-2.144l46.272-46.752c9.824-10.048 10.848-26.048 2.048-37.312l-23.744-30.304c10.112-18.208 18.016-37.664 23.328-57.984l38.496-4.608c14.112-1.664 24.672-13.632 24.672-27.84v-66.272c0-14.272-10.528-26.24-24.672-27.968v0zM304.8 756.553c-59.776 0-108.448-49.184-108.448-109.632s48.672-109.568 108.448-109.568c59.744 0 108.448 49.12 108.448 109.568s-48.672 109.632-108.448 109.632v0zM1001.952 354.057l-27.456-5.632c-3.104-17.12-8.448-33.792-15.808-49.536l20.032-21.536c9.6-10.24 10.048-26.112 1.056-36.896l-29.216-34.976c-8.992-10.816-24.512-12.992-36.16-5.248l-24.928 16.64c-14.4-9.888-29.984-17.824-46.496-23.744l-0.928-30.624c-0.512-14.080-11.328-25.568-25.184-26.752l-45.12-3.936c-13.888-1.056-26.464 8.448-29.248 22.24l-6.24 31.328c-16 3.104-31.648 8.32-46.432 15.296l-22.624-21.408c-10.176-9.632-25.824-10.080-36.512-0.992l-34.624 29.568c-10.624 9.056-12.8 24.736-5.12 36.544l17.248 26.272c-8.928 13.248-16.288 27.36-21.888 42.24l-30.88 0.992c-13.952 0.448-25.28 11.392-26.496 25.408l-3.808 45.664c-1.12 14.016 8.352 26.816 22.016 29.568l28.544 5.888c2.848 16.992 7.776 33.536 14.72 49.312l-20 21.568c-9.568 10.24-10.016 26.048-0.96 36.864l29.216 35.2c8.992 10.752 24.512 12.992 36.128 5.248l22.848-15.36c14.912 10.944 31.328 19.552 48.672 25.888l0.864 27.104c0.48 14.080 11.328 25.6 25.152 26.848l45.152 3.872c13.888 1.088 26.496-8.448 29.184-22.24l5.44-26.688c17.696-3.2 34.816-8.672 50.976-16.64l19.104 18.112c10.112 9.696 25.888 10.048 36.512 0.96l34.592-29.536c10.624-9.12 12.864-24.864 4.96-36.672l-15.072-22.88c9.568-14.208 17.216-29.568 22.976-45.792l27.52-0.864c13.952-0.448 25.28-11.424 26.464-25.44l3.84-45.632c1.024-14.080-8.416-26.816-22.016-29.6v0zM768.064 475.785c-48.768-4.096-85.184-47.616-80.928-96.96 4.064-49.312 47.072-86.080 95.872-81.856 48.8 4.096 85.12 47.648 80.928 96.96-4.064 49.312-47.136 86.080-95.872 81.856v0zM604.992 115.593c-0.064-14.112-10.752-25.888-24.576-27.328l-18.24-1.92c-3.84-13.664-9.44-26.656-16.704-38.88l11.776-15.424c8.576-11.232 7.456-27.008-2.528-36.864l-19.872-19.648c-10.016-9.888-25.6-10.528-36.48-1.632l-15.36 12.512c-12.544-6.88-25.728-12.064-39.552-15.52l-2.496-20.224c-1.76-14.016-13.632-24.448-27.584-24.192l-27.776 0.32c-14.016 0.064-25.632 10.912-27.072 24.832l-2.176 21.344c-12.672 3.776-24.896 9.216-36.448 16.128l-16.384-12.768c-11.104-8.672-26.688-7.584-36.512 2.528l-19.36 20.128c-9.856 10.112-10.496 25.888-1.696 36.864l13.152 16.448c-6.24 11.36-11.104 23.328-14.464 35.904l-20.448 2.624c-13.888 1.824-24.16 13.792-23.936 27.872l0.32 28.096c0.128 14.080 10.816 25.888 24.608 27.328l19.264 2.016c3.52 13.696 8.864 26.688 15.712 38.88l-11.744 15.328c-8.608 11.232-7.488 27.008 2.496 36.896l20 19.744c10.016 9.888 25.6 10.56 36.512 1.696l13.696-11.328c12.928 7.488 26.944 13.28 41.44 17.056l2.176 17.28c1.76 14.016 13.632 24.48 27.552 24.256l27.776-0.352c13.984-0.064 25.632-10.88 27.072-24.864l1.76-17.44c14.016-4 27.456-9.888 39.968-17.536l13.28 10.272c11.104 8.704 26.688 7.584 36.544-2.496l19.36-20.128c9.824-10.112 10.432-25.888 1.696-36.864l-11.136-13.76c6.56-12.256 11.68-25.312 15.072-38.88l17.792-2.336c13.888-1.792 24.16-13.792 23.936-27.84l-0.416-28.128zM404.576 205.929c-39.872 0.448-72.672-31.872-73.152-72.192-0.448-40.384 31.488-73.568 71.392-74.016 39.872-0.448 72.672 31.872 73.152 72.192 0.448 40.32-31.52 73.568-71.392 74.016v0z" />
<glyph unicode="&#xe60c;" d="M602.496 285.353c-28.512 0-51.552 23.872-51.552 53.312 0 29.376 23.072 53.184 51.552 53.184s51.616-23.808 51.616-53.184c0-29.44-23.104-53.312-51.616-53.312v0zM455.008 315.529c-27.744 0-50.24 23.264-50.24 51.872s22.496 51.808 50.24 51.808 50.24-23.2 50.24-51.808-22.496-51.872-50.24-51.872v0zM559.808 420.745c-20.448 0-36.864 17.056-36.864 38.048 0 20.928 16.448 38.016 36.864 38.016 20.32 0 36.736-17.056 36.736-38.016 0.032-20.992-16.416-38.048-36.736-38.048v0zM988.512 109.993c31.264-95.744-3.2-184.512-103.136-184.512h-709.824c-99.808 0-134.304 88.064-103.008 183.872 0 0 123.008 236.64 323.616 576.512v196.672h-12.32c-18.016-0.064-32.64 14.944-32.64 33.44 0.064 18.368 14.624 33.44 32.64 33.504l293.44-0.064c17.888 0.064 32.512-15.008 32.512-33.44 0-18.496-14.624-33.44-32.512-33.44h-12.384v-196.8c200.544-339.744 323.616-575.744 323.616-575.744v0zM607.328 650.217l-7.872 13.44h-137.888l-7.872-13.44c-51.136-86.688-205.12-364.32-226.016-400.992h604.992c-32.48 60.896-178.304 321.504-225.344 400.992v0z" />
<glyph unicode="&#xe60d;" d="M0-73.175v128.064c0 172.736 339.2 255.936 512 255.936s512-83.2 512-255.936v-128.064h-1024zM512 438.825c-140.8 0-256 115.2-256 256.064 0 140.736 115.2 255.936 256 255.936s256-115.2 256-255.936c0-140.864-115.2-256.064-256-256.064v0z" />
<glyph unicode="&#xe60e;" d="M0 496.282h1024v-114.85h-1024v114.85z" />
<glyph unicode="&#xe60f;" d="M369.632 930.537c48.384-129.952 77.184-234.144 40.992-274.432-87.424-97.568-92.32-87.488-92.32-87.488s22.112-129.952 90.944-228.512c64.192-92 153.312-148.384 153.312-148.384s78.56 53.216 101.76 48.672c201.376-39.424 264.992-122.848 232.256-211.392-16-43.328-20.448-84.608-88.992-97.888-118.496-23.008-344.512 41.152-548.8 347.2-129.856 194.496-167.456 391.2-119.456 537.184 47.232 143.52 215.104 155.84 230.304 115.040v0z" />
<glyph unicode="&#xe610;" d="M454.575 950.857h114.85v-1024h-114.85v1024zM0 496.282h1024v-114.85h-1024v114.85z" />
<glyph unicode="&#xe611;" d="M824.256 359.593l-264.32 158.56h147.616v432.704h-423.392v-432.672h153.6l-239.136-158.56h-174.24v-432.768h423.296v432.736h-162.016l210.080 139.872 243.072-139.872h-162.496v-432.736h423.328v432.736h-175.392zM363.2 866.729h265.184v-271.136h-265.184v271.136zM368.736 275.433v-271.072h-265.28v271.072h265.28zM920.64 4.361h-265.184v271.072h265.184v-271.072z" />
<glyph unicode="&#xe612;" d="M690.464 289.865l75.008-364.384-226.88 159.072-227.168-159.072 81.984 353.184c-125.856 53.184-214.272 177.376-214.272 321.632 0 192.576 157.536 349.184 351.2 349.184 193.728 0 351.552-156.576 351.552-349.184 0-135.2-78.016-252.448-191.424-310.432v0zM530.336 852.361c-140.16 0-253.664-113.056-253.664-252.064 0-139.072 113.504-252.128 253.664-252.128 139.904 0 253.824 113.056 253.824 252.128 0 139.008-113.92 252.064-253.824 252.064v0zM609.056 576.041l48.576-148.576-127.168 91.808-127.2-91.808 48.576 148.576-127.296 91.872h157.376l48.544 148.576 48.608-148.576h157.216l-127.232-91.872z" />
<glyph unicode="&#xe613;" d="M413.696 129.769c219.68 0 397.696 183.776 397.696 410.464 0 226.848-178.016 410.56-397.696 410.56-219.648 0.032-397.696-183.712-397.696-410.56 0-226.688 178.048-410.464 397.696-410.464v0zM413.696 814.057c146.176 0 265.184-122.88 265.184-273.824 0-150.816-119.008-273.632-265.184-273.632s-265.184 122.816-265.184 273.632c0 150.944 118.976 273.824 265.184 273.824v0zM682.368 123.497l190.496-196.672 135.136 139.488-190.496 196.64c-27.2-36.128-100.064-111.392-135.136-139.456v0z" />
<glyph unicode="&#xe614;" d="M767.2 480.745h-510.4c-16.32 0-29.632 13.056-29.632 29.312v99.68c0 16.256 13.312 29.376 29.632 29.376h510.368c16.32 0 29.632-13.12 29.632-29.376v-99.68c0-16.256-13.312-29.312-29.6-29.312v0zM280.576 605.737c-10.048 0-18.24-8.064-18.24-18.016 0-10.048 8.192-18.112 18.24-18.112 10.112 0 18.24 8.064 18.24 18.112 0 9.952-8.128 18.016-18.24 18.016v0zM718.944 559.849h-128.928v-42.368h128.928v42.368zM767.2 306.345h-510.4c-16.32 0-29.632 13.056-29.632 29.248v99.68c0 16.256 13.312 29.376 29.632 29.376h510.368c16.32 0 29.632-13.12 29.632-29.376v-99.68c0-16.16-13.312-29.248-29.6-29.248v0zM280.576 431.369c-10.048 0-18.24-8.128-18.24-18.112 0-10.048 8.192-18.048 18.24-18.048 10.112 0 18.24 8.064 18.24 18.048s-8.128 18.112-18.24 18.112v0zM718.944 385.481h-128.928v-42.432h128.928v42.432zM767.2 131.913h-510.4c-16.32 0-29.632 13.056-29.632 29.312v99.68c0 16.192 13.312 29.312 29.632 29.312h510.368c16.32 0 29.632-13.12 29.632-29.312v-99.68c0-16.256-13.312-29.312-29.6-29.312v0zM280.576 256.841c-10.048 0-18.24-8-18.24-18.016 0-10.048 8.192-18.048 18.24-18.048 10.112 0 18.24 8 18.24 18.048 0 10.016-8.128 18.016-18.24 18.016v0zM718.944 211.113h-128.928v-42.496h128.928v42.496zM600.192-51.095v-20.672h-176.384v20.672h-190.368v66.944h190.368v20.64h54.432v78.432h67.488v-78.432h54.432v-20.64h190.368v-66.944h-190.336zM840 370.793v64.576c0 8-1.504 15.68-4 22.88 52.992 17.312 91.488 66.88 91.488 125.12 0 72.672-59.552 131.68-132.864 131.68-4.384 0-8.8-0.192-13.312-0.672-18.048-1.76-35.328 7.808-43.2 24-22.432 46.048-68.32 74.624-119.552 74.624-9.12 0-18.304-0.992-27.328-2.816-14.048-2.88-28.64 1.312-38.944 11.328-30.112 29.12-69.824 45.12-111.68 45.12-73.312 0-137.056-49.312-154.88-119.872-5.152-20.352-24.288-33.92-45.408-32.288-3.616 0.32-7.264 0.576-10.944 0.576-73.312 0-132.864-59.008-132.864-131.68 0-58.24 38.368-107.808 91.424-125.12-2.432-7.2-3.936-14.88-3.936-22.944v-64.576c-99.264 20.8-173.952 108.192-173.952 212.64 0 109.504 82.176 200.448 188.64 215.264 8.512 1.152 15.872 6.464 19.552 14.176 40.064 84 125.824 139.424 222.368 139.424 53.888 0 105.376-17.184 147.936-48.928 4.8-3.68 10.752-5.44 16.8-5.056 4.384 0.256 8.8 0.448 13.184 0.448 69.824 0 135.36-33.888 176.32-88.64 4.384-5.824 11.072-9.568 18.368-10.112 112.192-9.376 200.672-102.944 200.672-216.576 0.064-104.448-74.624-191.84-173.888-212.576v0z" />
<glyph unicode="&#xe615;" d="M913.568 591.657h-16.384c-17.44 200.928-185.312 359.2-389.504 359.2-204.256 0-372.064-158.272-389.568-359.2h-7.744c-42.048 0-76.256-32.384-76.256-72.128v-283.136c0-39.872 34.176-72.192 76.256-72.192h82.816c42.048 0 76.192 32.32 76.192 72.192v283.136c0 39.744-34.112 72.128-76.192 72.128h-33.12c17.12 179.072 166.496 319.616 347.616 319.616s330.496-140.512 347.616-319.616h-24.576c-42.048 0-76.192-32.384-76.192-72.128v-283.136c0-34.176 25.696-63.872 60.992-70.688l37.12-0.928c1.184-23.552-1.504-69.312-33.568-105.824-26.752-30.304-69.056-48.64-125.568-55.136-9.376 13.76-25.696 22.88-44.256 22.88h-79.936c-29.056 0-52.736-22.304-52.736-49.952 0-27.552 23.68-49.952 52.736-49.952h79.936c24.8 0 45.376 16.192 51.072 37.952 66.816 7.936 117.76 30.944 151.328 69.184 39.68 45.44 44.32 99.872 43.072 130.24h18.88c42.048 0 76.192 32.32 76.192 72.192v283.136c0.032 39.776-34.112 72.16-76.224 72.16v0z" />
<glyph unicode="&#xe616;" d="M682.592 609.609h-341.28v-341.312h341.28v341.312zM568.832 382.057h-113.792v113.76h113.824v-113.76h-0.032zM1023.968 495.785v113.824h-113.792v113.76c0 62.56-51.232 113.76-113.824 113.76h-113.792v113.728h-113.76v-113.76h-113.76v113.76h-113.728v-113.76h-113.76c-62.624 0-113.824-51.2-113.824-113.76v-113.76h-113.728v-113.824h113.76v-113.76h-113.76v-113.76h113.76v-113.824c0-62.56 51.2-113.76 113.824-113.76h113.76v-113.824h113.728v113.824h113.824v-113.824h113.76v113.824h113.792c62.592 0 113.824 51.2 113.824 113.76v113.888h113.792v113.76h-113.792v113.76l113.696-0.032zM796.384 154.473h-568.832v568.896h568.8v-568.896h0.032z" />
</font>
</defs>
</svg>
